<svg preserveAspectRatio="xMidYMid meet" viewBox="0 0 98 758" xmlns="http://www.w3.org/2000/svg" xmlns:xlink="http://www.w3.org/1999/xlink"><linearGradient id="a" x1="0%" x2="0%" y1="0%" y2="100%"><stop offset="0" stop-color="#1a0054"/><stop offset=".12236926" stop-color="#3023ae"/><stop offset=".25257095" stop-color="#ea4fca"/><stop offset=".406429369" stop-color="#faad8d"/><stop offset=".791414222" stop-color="#fffffc"/><stop offset="1" stop-color="#fffffc"/></linearGradient><linearGradient id="b" x1="50%" x2="50%" y1="0%" y2="100%"><stop offset="0" stop-color="#c69cdc"/><stop offset=".133151307" stop-color="#9e4be5"/><stop offset=".257136277" stop-color="#4826ae"/><stop offset=".401288627" stop-color="#0d0a1f"/><stop offset="1" stop-color="#0d0a1f"/></linearGradient><linearGradient id="c" x1="50%" x2="50%" y1="0%" y2="50%"><stop offset="0" stop-color="#1e0061"/><stop offset="1" stop-color="#1e0061" stop-opacity="0"/></linearGradient><linearGradient id="d" x1="50%" x2="50%" y1="-25.478615%" y2="46.75438%"><stop offset="0" stop-color="#58009c" stop-opacity=".4"/><stop offset="1" stop-color="#58009c" stop-opacity="0"/></linearGradient><g fill="none" transform="translate(.125 .125)"><g transform="translate(0 29.5)"><path d="m.109929.122636h97.321513v371.762411h-97.321513z" fill="#000"/><path d="m.109929.122636h97.321513v728h-97.321513z" fill="url(#a)"/></g><path d="m48.770686 29.622636h48.660757v728h-48.660757z" fill="url(#b)"/><path d="m48.7411348 1.56117025 48.6926713 28.08156025-48.6288416 28.0460992-48.69267135-28.0821512z" fill="#6689db"/><path d="m.04137116 32.0375295 48.75886524 27.9704493v2.8049645l-48.75886524-27.9704492zm0 4.7281325 48.75886524 27.9704491v2.8049645l-48.75886524-27.9704491zm0 4.7281324 48.75886524 27.9704491v2.8049645l-48.75886524-27.9704491zm0 4.7281324 48.75886524 27.9704491v2.8049645l-48.75886524-27.9704491zm0 4.7281323 48.75886524 27.9704491v2.8049647l-48.75886524-27.9704493zm0 4.7281324 48.75886524 27.9704491v2.8049646l-48.75886524-27.9704492zm0 4.7281324 48.75886524 27.9704491v2.8049646l-48.75886524-27.9704492zm0 4.7281323 48.75886524 27.9704492v2.8049646l-48.75886524-27.9704492zm0 4.7281324 48.75886524 27.9704493v2.8049641l-48.75886524-27.9704488zm0 4.7281324 48.75886524 27.970449v2.804965l-48.75886524-27.9704494zm0 4.7281324 48.75886524 27.9704496v2.804964l-48.75886524-27.970449zm0 4.7281325 48.75886524 27.9704491v2.804965l-48.75886524-27.9704496zm0 4.7281324 48.75886524 27.9704487v2.804966l-48.75886524-27.9704502zm0 4.7281323 48.75886524 27.9704494v2.804964l-48.75886524-27.9704489zm0 4.7281324 48.75886524 27.970449v2.804964l-48.75886524-27.970448zm0 4.728132 48.75886524 27.97045v2.804964l-48.75886524-27.970449zm0 4.728133 48.75886524 27.970449v2.804964l-48.75886524-27.970448zm0 4.728132 48.75886524 27.970449v2.804965l-48.75886524-27.970449zm0 4.728132 48.75886524 27.970449v2.804965l-48.75886524-27.970448zm0 4.728133 48.75886524 27.970449v2.804965l-48.75886524-27.970449zm0 4.728133 48.75886524 27.970448v2.804965l-48.75886524-27.97045zm0 4.728132 48.75886524 27.970449v2.804965l-48.75886524-27.97045zm0 4.728133 48.75886524 27.970448v2.804965l-48.75886524-27.97045zm0 4.728132 48.75886524 27.970449v2.804965l-48.75886524-27.97045z" fill="url(#c)"/><path d="m97.5 31.8602246-48.7588652 27.9704492v2.8049644l48.7588652-27.9704491zm0 4.7281324-48.7588652 27.9704491v2.8049645l48.7588652-27.9704491zm0 4.7281324-48.7588652 27.9704491v2.8049646l48.7588652-27.9704492zm0 4.7281323-48.7588652 27.9704492v2.8049646l48.7588652-27.9704492zm0 4.7281324-48.7588652 27.9704491v2.8049647l48.7588652-27.9704493zm0 4.7281324-48.7588652 27.9704492v2.8049646l48.7588652-27.9704492zm0 4.7281324-48.7588652 27.9704492v2.8049645l48.7588652-27.9704491zm0 4.7281323-48.7588652 27.9704493v2.8049645l48.7588652-27.9704491zm0 4.7281325-48.7588652 27.9704492v2.8049641l48.7588652-27.9704488zm0 4.7281324-48.7588652 27.9704489v2.804965l48.7588652-27.9704494zm0 4.7281324-48.7588652 27.9704495v2.804964l48.7588652-27.970449zm0 4.7281324-48.7588652 27.9704491v2.804965l48.7588652-27.9704496zm0 4.7281324-48.7588652 27.9704497v2.804965l48.7588652-27.9704503zm0 4.7281323-48.7588652 27.9704494v2.804964l48.7588652-27.9704489zm0 4.7281324-48.7588652 27.97045v2.804963l48.7588652-27.970448zm0 4.728132-48.7588652 27.97045v2.804964l48.7588652-27.970449zm0 4.728133-48.7588652 27.97045v2.804963l48.7588652-27.970448zm0 4.728132-48.7588652 27.970449v2.804965l48.7588652-27.970449zm0 4.728133-48.7588652 27.970448v2.804965l48.7588652-27.970449zm0 4.728132-48.7588652 27.970449v2.804965l48.7588652-27.970449zm0 4.728133-48.7588652 27.970448v2.804965l48.7588652-27.970449zm0 4.728132-48.7588652 27.970449v2.804965l48.7588652-27.97045zm0 4.728133-48.7588652 27.970448v2.804965l48.7588652-27.97045zm0 4.728132-48.7588652 27.970449v2.804965l48.7588652-27.97045z" fill="url(#d)"/><path d="m.04137116 32.0375295 11.52482274 6.6938535v2.8049645l-11.52482274-6.6938534z" fill="#fff"/><path d="m15.1122931 102.132092 11.5248228 6.693854v2.804964l-11.5248228-6.693853z" fill="#fff"/><path d="m37.2754137 72.2266549 11.5248227 6.6938533v2.8049647l-11.5248227-6.6938535z" fill="#fff"/><path d="m5.83333334 68.4441489 11.52482266 6.6938535v2.8049645l-11.52482266-6.6938534z" fill="#fff"/><path d="m92.5945626 91.375591-11.5248226 6.6938535v2.8049645l11.5248226-6.6938535z" fill="#fec1b9"/><path d="m71.6134751 112.829491-11.5248226 6.693854v2.804965l11.5248226-6.693854z" fill="#fec1b9"/><path d="m13.4574467 49.1770095 19.2080379 11.1264775v2.8049645l-19.2080379-11.1264775z" fill="#fff"/><path d="m35.856974 62.0611703 2.6595745 1.6111111v2.8049645l-2.6595745-1.6111111z" fill="#fff"/><path d="m21.140662 67.6758274 2.6595744 1.6111111v2.8049646l-2.6595744-1.6111111z" fill="#fff"/><path d="m39.8758865 87.947695 2.6595745 1.6111111v2.8049645l-2.6595745-1.611111z" fill="#fff"/><g fill="#fecdb9"><path d="m60.3250591 72.2266549-11.5248227 6.6938533v2.8049647l11.5248227-6.6938535z"/><path d="m93.4219859 43.6214539-19.2080379 11.1264776v2.8049645l19.2080379-11.1264775z"/><path d="m84.320331 77.1911939-19.2080379 11.1264775v2.8049645l19.2080379-11.1264775z"/><path d="m88.3983451 65.3708629-2.6595745 1.6111111v2.8049645l2.6595745-1.6111111z"/><path d="m93.9539007 109.460697-2.6595745 1.611112v2.804963l2.6595745-1.611109z"/></g><path d="m4.97754137 25.34013 55.07978723 22.3404255v-.5065011l-11.2765957 7.2104019-43.74408988-25.1182033z" fill="#261d9e"/><path d="m48.7115839 45.9075059 43.8522458-20.5969266v3.8079196l-43.8522458 25.325059z" fill="#90a9e2"/><path d="m48.7440899.07771863 43.823286 25.27364077-43.7659574 25.2411347-43.82328611-25.2736407z" fill="#6488dc"/><g transform="translate(46.140662 3.801123)"><path d="m3.17789598.04905437 8.84456262 5.10638298-3.15898343 1.82446809-8.84456264-5.106974z" fill="#6488dc"/><path d="m.01359338 1.86643026 8.95626477 5.09751773v1.13475177l-8.95626477-5.09751772z" fill="#201d9e"/><path d="m8.97635934 6.9107565 3.08747046-1.78191489v1.11702128l-3.08747046 1.78191489z" fill="#90aae3"/></g><g transform="translate(54.828605 30.515071)"><path d="m3.17789598.04905437 8.84456262 5.10638298-3.15898342 1.82446809-8.84456265-5.10638298z" fill="#6488dc"/><path d="m.01359338 1.86643026 8.95626477 5.09751773v1.13475177l-8.95626477-5.09751772z" fill="#201d9e"/><path d="m8.97635934 6.9107565 3.08747046-1.78191489v1.11702128l-3.08747046 1.78191489z" fill="#90aae3"/></g><g transform="translate(81.483452 21.295213)"><path d="m3.00886525 3.39249452c.04044541.24736999-.1036355.50301123-.4320331.69261187-.58451536.33747045-1.53250591.33806146-2.11702127.00118202-.27619616-.15918281-.4217517-.36521151-.43679132-.57387706h-.01179025v-2.63356974h2.99763594z" fill="#271c9f"/><path d="m.46040189.31028369c.58451537-.33747045 1.53250591-.33806147 2.11702127-.00118204.58451538.33687944.58392435.88356975-.00059101 1.2210402-.58451536.33747044-1.53250591.33806146-2.11702127.00118203-.58451537-.33687943-.58392436-.88356974.00059101-1.22104019z" fill="#6488dc"/></g></g></svg>