<svg preserveAspectRatio="xMidYMid meet" viewBox="0 0 2995 12301" xmlns="http://www.w3.org/2000/svg" xmlns:xlink="http://www.w3.org/1999/xlink"><style>@-webkit-keyframes light-blink-lefthouse{0%{opacity:1}5%{opacity:1}7%{opacity:.2}11%{opacity:1}12%{opacity:1}16%{opacity:.5}20%{opacity:1}70%{opacity:1}74%{opacity:.7}78%{opacity:1}88%{opacity:1}92%{opacity:0}96%{opacity:1}100%{opacity:1}}@-moz-keyframes light-blink-lefthouse{0%{opacity:1}5%{opacity:1}7%{opacity:.2}11%{opacity:1}12%{opacity:1}16%{opacity:.5}20%{opacity:1}70%{opacity:1}74%{opacity:.7}78%{opacity:1}88%{opacity:1}92%{opacity:0}96%{opacity:1}100%{opacity:1}}@-o-keyframes light-blink-lefthouse{0%{opacity:1}5%{opacity:1}7%{opacity:.2}11%{opacity:1}12%{opacity:1}16%{opacity:.5}20%{opacity:1}70%{opacity:1}74%{opacity:.7}78%{opacity:1}88%{opacity:1}92%{opacity:0}96%{opacity:1}100%{opacity:1}}@keyframes light-blink-lefthouse{0%{opacity:1}5%{opacity:1}7%{opacity:.2}11%{opacity:1}12%{opacity:1}16%{opacity:.5}20%{opacity:1}70%{opacity:1}74%{opacity:.7}78%{opacity:1}88%{opacity:1}92%{opacity:0}96%{opacity:1}100%{opacity:1}}#light-blink-lefthouse{-webkit-animation:light-blink-lefthouse 5s infinite linear;-moz-animation:light-blink-lefthouse 5s infinite linear;-o-animation:light-blink-lefthouse 5s infinite linear;animation:light-blink-lefthouse 5s infinite linear}</style><linearGradient id="a" x1="0%" x2="0%" y1="100%" y2="0%"><stop offset="0" stop-color="#1c1649" stop-opacity="0"/><stop offset="1" stop-color="#1c1649"/></linearGradient><linearGradient id="b" x1="0%" x2="100%" y1="0%" y2="0%"><stop offset="0" stop-color="#ffc3a7"/><stop offset="1" stop-color="#ffc3a7" stop-opacity="0"/></linearGradient><g fill="none" transform="translate(0 -1)"><path d="m.484 864.266h2994v11436.75h-2994z" fill="#020716"/><path d="m1497.484 864.266h1497v11436.75h-1497z" fill="#120b3f"/><path d="m1496.581.968 1497.958 863.898-1495.996 862.798-1497.958-863.901z" fill="#251486"/><path d="m2659.204 6758.745v-248.799l99.092-57.191v248.799zm0-636.8 99.092-57.191v248.801l-99.092 57.19zm0-360 99.092-57.191v248.801l-99.092 57.191zm0-360 99.092-57.191v248.801l-99.092 57.191zm0-360 99.092-57.191v248.801l-99.092 57.191zm0-360 99.092-57.191v248.801l-99.092 57.191zm0-360 99.092-57.191v248.801l-99.092 57.191zm0-360 99.092-57.191v248.801l-99.092 57.189zm0-360 99.092-57.19v248.799l-99.092 57.191zm0-359.999 99.092-57.191v248.799l-99.092 57.191zm0-360 99.092-57.191v248.799l-99.092 57.191zm0-360 99.092-57.191v248.799l-99.092 57.191zm0-360 99.092-57.191v248.799l-99.092 57.191zm0-360 99.092-57.191v248.799l-99.092 57.191zm0-360.002 99.092-57.189v248.799l-99.092 57.191zm-240.001 5212.001 99.093-57.191v248.8l-99.093 57.191zm0-388 99.093-57.191v248.801l-99.093 57.191zm0-360 99.093-57.191v248.801l-99.093 57.191zm0-360 99.093-57.191v248.801l-99.093 57.191zm0-360 99.093-57.191v248.801l-99.093 57.189zm0-360 99.093-57.19v248.799l-99.093 57.191zm0-359.999 99.093-57.191v248.799l-99.093 57.191zm0-360 99.093-57.191v248.799l-99.093 57.191zm0-360 99.093-57.191v248.799l-99.093 57.191zm0-360 99.093-57.191v248.799l-99.093 57.191zm0-360 99.093-57.191v248.799l-99.093 57.191zm0-360.002 99.093-57.189v248.799l-99.093 57.191zm0-359.999 99.093-57.191v248.8l-99.093 57.191zm0-360 99.093-57.191v248.8l-99.093 57.191zm0-360 99.093-57.191v248.801l-99.093 57.19zm-244 5204.001 99.093-57.191v248.799l-99.093 57.191zm0-388.002 99.093-57.189v248.799l-99.093 57.191zm0-359.999 99.093-57.191v248.8l-99.093 57.191zm0-360 99.093-57.191v248.801l-99.093 57.19zm0-360 99.093-57.191v248.801l-99.093 57.191zm0-360 99.093-57.191v248.801l-99.093 57.191zm0-360 99.093-57.191v248.801l-99.093 57.191zm0-360 99.093-57.191v248.801l-99.093 57.191zm0-360 99.093-57.191v248.801l-99.093 57.191zm0-360 99.093-57.191v248.801l-99.093 57.189zm0-360 99.093-57.19v248.799l-99.093 57.19zm0-359.999 99.093-57.191v248.799l-99.093 57.191zm0-360 99.093-57.191v248.799l-99.093 57.191zm0-360 99.093-57.191v248.799l-99.093 57.191zm0-360 99.093-57.191v248.799l-99.093 57.191z" fill="#100a39"/><path d="m2642.204 6748.745v-248.799l99.093-57.191v248.799zm0-636.8 99.093-57.191v248.801l-99.093 57.191zm0-360 99.093-57.191v248.801l-99.093 57.191zm0-360 99.093-57.191v248.801l-99.093 57.191zm0-360 99.093-57.191v248.801l-99.093 57.191zm0-360 99.093-57.191v248.801l-99.093 57.191zm0-360 99.093-57.19v248.8l-99.093 57.191zm0-359.999 99.093-57.191v248.8l-99.093 57.19zm0-360 99.093-57.191v248.799l-99.093 57.191zm0-360 99.093-57.191v248.799l-99.093 57.191zm0-360 99.093-57.191v248.799l-99.093 57.191zm0-360 99.093-57.191v248.799l-99.093 57.191zm0-360 99.093-57.191v248.799l-99.093 57.191zm0-360 99.093-57.191v248.799l-99.093 57.191zm0-360.001 99.093-57.19v248.799l-99.093 57.191zm-240.001 5212 99.093-57.191v248.801l-99.093 57.191zm0-388 99.093-57.191v248.801l-99.093 57.191zm0-360 99.093-57.191v248.801l-99.093 57.191zm0-360 99.093-57.19v248.8l-99.093 57.191zm0-359.999 99.093-57.191v248.8l-99.093 57.19zm0-360 99.093-57.191v248.799l-99.093 57.191zm0-360 99.093-57.191v248.799l-99.093 57.191zm0-360 99.093-57.191v248.799l-99.093 57.191zm0-360 99.093-57.191v248.799l-99.093 57.191zm0-360 99.093-57.191v248.799l-99.093 57.191zm0-360 99.093-57.191v248.799l-99.093 57.191zm0-360.001 99.093-57.19v248.799l-99.093 57.191zm0-360 99.093-57.191v248.801l-99.093 57.19zm0-360 99.093-57.191v248.801l-99.093 57.191zm0-360 99.093-57.191v248.801l-99.093 57.191zm-244 5204.001 99.093-57.191v248.799l-99.093 57.191zm0-388.001 99.093-57.19v248.8l-99.093 57.19zm0-360 99.093-57.191v248.801l-99.093 57.191zm0-360 99.093-57.191v248.801l-99.093 57.191zm0-360 99.093-57.191v248.801l-99.093 57.191zm0-360 99.093-57.191v248.801l-99.093 57.191zm0-360 99.093-57.191v248.801l-99.093 57.191zm0-360 99.093-57.191v248.801l-99.093 57.191zm0-360 99.093-57.191v248.801l-99.093 57.191zm0-360 99.093-57.19v248.8l-99.093 57.19zm0-359.999 99.093-57.191v248.799l-99.093 57.191zm0-360 99.093-57.191v248.799l-99.093 57.191zm0-360 99.093-57.191v248.799l-99.093 57.191zm0-360 99.093-57.191v248.799l-99.093 57.191zm0-360 99.093-57.191v248.799l-99.093 57.191z" fill="url(#a)"/><path d="m1711.229 208.624 1125.043 643.347-40.501 22.625-1084.542-619.349z" fill="#2c1a95"/><path d="m2489.296 1867.754-99.093 57.191v248.801l99.093-57.191z" fill="#f9c4b6" id="light-blink-lefthouse"/><path d="m2449.096 2084.485c-.016.029-.023.044-.023.044s2.702 5.898 2.479 8.375c-.226 2.48-5.086 9.974-5.086 9.974s2.88.929 4.115 3.87c1.238 2.936 1.639 9.624.853 21.822s-4.385 26.024-4.385 27.328c0 0 2.472-.648 3.71 1.247 1.238 1.89-2.023 6.26-6.297 8.208-4.27 1.951-3.147-3.135-3.147-3.135s-1.113.527-1.686.843c-.719.4-1.893 1.295-2.166 1.5-.051.041-.081.063-.084.064 0 0 .506 1.927.506 2.839 0 .916-2.471 3.256-6.633 5.274-1.043.505-1.852.719-2.456.712-2.255 2.494-9.481 5.851-10.361 5.53-.9-.327 1.011-4.369 1.011-4.369s-3.092-1.016-6.127-4.479c-.728-.83-1.001-1.907-.969-3.138-.395-.12-.854-.302-1.392-.584-2.249-1.178-2.418-5.387-1.237-12.398s6.296-16.365 6.015-19.269-1.518-7.603 1.574-10.827c3.092-3.225 3.767-.027 4.273 6.465.506 6.493-6.915 19.072-7.308 23.279-.232 2.474.449 3.828 1.051 4.528.858-1.735 1.77-3.456 2.547-5.044 2.365-4.834 3.894-9.261 5.136-12.86-.065-2.041-.014-4.021.203-5.822 1.012-8.414 4.722-19.694 4.722-19.694s-2.074.12-4.692-1.141c-1.099-.53-2.108-2.181-2.131-3.236-.041-1.887 1.764-5.217 1.979-6.094.243-.983-.147-1.719.281-3.917-.533-1.747-1.475-5.213-1.475-7.891 0-3.519 1.96-8.399 2.186-8.952.014-.035.02-.051.02-.051l6.972 3.082c1.379-1.246 2.766-2.219 4.058-3.108 3.596-2.472 5.846-2.075 5.846-2.075s2.378-3.525 5.413-7.368c2.655-3.36 3.923-4.681 4.2-4.959.037-.037.057-.056.057-.056s1.353.81 1.353 3.894c0 5.719-2.631 11.051-2.905 11.589zm-20.804 14.458c-.122.062-.237.132-.348.209-1.734 1.175-2.196 3.779-2.196 3.779s.648 1.227 2.058.677c.159-.065.307-.131.448-.213 1.542-.841 2.355-2.583 2.355-2.583s-.3-2.908-2.317-1.869zm12.001-6.945c-.105.068-.206.142-.3.221-1.751 1.408-2.017 4.33-2.017 4.33s.813.806 2.357-.143c.142-.086.29-.188.446-.305 1.406-1.08 2.057-3.058 2.057-3.058s-.523-2.343-2.543-1.045z" fill="#120b3f"/><path d="m2391 1925v249l156 90 10-358.283-68-36.717z" fill="url(#b)" id="light-blink-lefthouse"/><path d="m2188.171 640.555 299.299 172.799-106.901 61.721-299.298-172.799z" fill="#2a198f"/><path d="m2081.077 702.052 303.096 172.496v38.4l-303.096-172.495z" fill="#201178"/><path d="m2384.393 872.75 104.464-60.3v37.8l-104.464 60.3z" fill="#3825a3"/><path d="m1732.171 674.555 299.299 172.799-106.901 61.721-299.298-172.799z" fill="#2a198f"/><path d="m1625.077 736.052 303.096 172.496v38.4l-303.096-172.495z" fill="#201178"/><path d="m1928.393 906.749 104.464-60.299v37.8l-104.464 60.299z" fill="#3825a3"/></g></svg>