<svg preserveAspectRatio="xMidYMid meet" viewBox="0 0 749 6603" xmlns="http://www.w3.org/2000/svg" xmlns:xlink="http://www.w3.org/1999/xlink"><linearGradient id="a" x1="0%" x2="0%" y1="100%" y2="0%"><stop offset="0" stop-color="#fff"/><stop offset=".611671242" stop-color="#ea4fca"/><stop offset=".749181799" stop-color="#ea4fca"/><stop offset=".874234586" stop-color="#2d26b0"/><stop offset="1" stop-color="#1a0054"/></linearGradient><linearGradient id="b" x1="49.99637%" x2="49.996366%" y1="95.876209%" y2="0%"><stop offset="0" stop-color="#f28cdd"/><stop offset=".22206021" stop-color="#ea4fca"/><stop offset=".615545757" stop-color="#a233b0"/><stop offset=".81" stop-color="#231992"/><stop offset="1" stop-color="#14074a"/><stop offset="1" stop-color="#130051"/></linearGradient><linearGradient id="c" x1="0%" x2="100%" y1="0%" y2="0%"><stop offset="0" stop-color="#fffdff" stop-opacity="0"/><stop offset="1" stop-color="#fffdff"/></linearGradient><linearGradient id="d" x1="0%" x2="0%" y1="46.959987%" y2="0%"><stop offset="0" stop-color="#18062c"/><stop offset=".62956609" stop-color="#3e23ad"/><stop offset=".811312289" stop-color="#8e3eda"/><stop offset="1" stop-color="#cea9e9"/></linearGradient><linearGradient id="e" x1="0%" x2="0%" y1="100%" y2="2.283681%"><stop offset="0" stop-color="#19093c"/><stop offset=".495618666" stop-color="#4c2ebf"/><stop offset=".724636944" stop-color="#581dc7" stop-opacity=".37"/><stop offset="1" stop-color="#ad77d7"/></linearGradient><linearGradient id="f" x1="0%" x2="0%" y1="100%" y2="0%"><stop offset="0" stop-color="#fff"/><stop offset="1" stop-color="#fff" stop-opacity="0"/></linearGradient><linearGradient id="g"><stop offset="0" stop-color="#fff" stop-opacity=".5"/><stop offset="1" stop-color="#fff" stop-opacity="0"/></linearGradient><linearGradient id="h" x1="0%" x2="70.711%" xlink:href="#g" y1="70.711%" y2="0%"/><linearGradient id="i" x1="86.603%" x2="0%" xlink:href="#g" y1="50%" y2="0%"/><linearGradient id="j" x1="0%" x2="100%" y1="0%" y2="0%"><stop offset="0" stop-color="#ffc3a7"/><stop offset="1" stop-color="#ffc3a7" stop-opacity="0"/></linearGradient><g fill="none"><path d="m.25 707.313h748.5v2859.187h-748.5z" fill="#030b22"/><path d="m.25 707.313h748.5v5895h-748.5z" fill="url(#a)"/><path d="m254.613 3454.951v-62.2l24.774 14.298v62.2zm0-152.2 24.774 14.298v62.2l-24.774-14.298zm0-90 24.774 14.298v62.2l-24.774-14.298zm0-90 24.774 14.298v62.2l-24.774-14.298zm0-90 24.774 14.298v62.2l-24.774-14.298zm0-90 24.774 14.298v62.2l-24.774-14.298zm0-90 24.774 14.298v62.2l-24.774-14.298zm0-90 24.774 14.298v62.2l-24.774-14.298zm0-90 24.774 14.298v62.2l-24.774-14.298zm0-90 24.774 14.298v62.2l-24.774-14.298zm0-90 24.774 14.298v62.2l-24.774-14.298zm0-90 24.774 14.298v62.2l-24.774-14.298zm0-90 24.774 14.298v62.2l-24.774-14.298zm0-90 24.774 14.298v62.2l-24.774-14.298zm0-97 24.774 14.298v62.2l-24.774-14.298zm0-90 24.774 14.298v62.2l-24.774-14.298zm0-90 24.774 14.298v62.2l-24.774-14.298zm0-90 24.774 14.298v62.2l-24.774-14.298zm0-90 24.774 14.298v62.2l-24.774-14.298zm0-90 24.774 14.298v62.2l-24.774-14.298zm0-90 24.774 14.298v62.2l-24.774-14.298zm0-90 24.774 14.298v62.2l-24.774-14.298zm0-90 24.774 14.298v62.2l-24.774-14.298zm0-90 24.774 14.298v62.2l-24.774-14.298zm0-90 24.774 14.298v62.2l-24.774-14.298zm0-90 24.774 14.298v62.2l-24.774-14.298zm0-90 24.774 14.298v62.2l-24.774-14.298zm0-90 24.774 14.298v62.2l-24.774-14.298zm-60 2403 24.774 14.298v62.2l-24.774-14.298zm0-90 24.774 14.298v62.2l-24.774-14.298zm0-90 24.774 14.298v62.2l-24.774-14.298zm0-90 24.774 14.298v62.2l-24.774-14.298zm0-90 24.774 14.298v62.2l-24.774-14.298zm0-90 24.774 14.298v62.2l-24.774-14.298zm0-90 24.774 14.298v62.2l-24.774-14.298zm0-90 24.774 14.298v62.2l-24.774-14.298zm0-90 24.774 14.298v62.2l-24.774-14.298zm0-90 24.774 14.298v62.2l-24.774-14.298zm0-90 24.774 14.298v62.2l-24.774-14.298zm0-90 24.774 14.298v62.2l-24.774-14.298zm0-90 24.774 14.298v62.2l-24.774-14.298zm0-90 24.774 14.298v62.2l-24.774-14.298zm0-97 24.774 14.298v62.2l-24.774-14.298zm0-90 24.774 14.298v62.2l-24.774-14.298zm0-90 24.774 14.298v62.2l-24.774-14.298zm0-90 24.774 14.298v62.2l-24.774-14.298zm0-90 24.774 14.298v62.2l-24.774-14.298zm0-90 24.774 14.298v62.2l-24.774-14.298zm0-90 24.774 14.298v62.2l-24.774-14.298zm0-90 24.774 14.298v62.2l-24.774-14.298zm0-90 24.774 14.298v62.2l-24.774-14.298zm0-90 24.774 14.298v62.2l-24.774-14.298zm0-90 24.774 14.298v62.2l-24.774-14.298zm0-90 24.774 14.298v62.2l-24.774-14.298zm0-90 24.774 14.298v62.2l-24.774-14.298zm0-90 24.774 14.298v62.2l-24.774-14.298zm-60.999 2403 24.773 14.298v62.2l-24.773-14.298zm0-90 24.773 14.298v62.2l-24.773-14.298zm0-90 24.773 14.298v62.2l-24.773-14.298zm0-90 24.773 14.298v62.2l-24.773-14.298zm0-90 24.773 14.298v62.2l-24.773-14.298zm0-90 24.773 14.298v62.2l-24.773-14.298zm0-90 24.773 14.298v62.2l-24.773-14.298zm0-90 24.773 14.298v62.2l-24.773-14.298zm0-90 24.773 14.298v62.2l-24.773-14.298zm0-90 24.773 14.298v62.2l-24.773-14.298zm0-90 24.773 14.298v62.2l-24.773-14.298zm0-90 24.773 14.298v62.2l-24.773-14.298zm0-90 24.773 14.298v62.2l-24.773-14.298zm0-90 24.773 14.298v62.2l-24.773-14.298zm0-97 24.773 14.298v62.2l-24.773-14.298zm0-90 24.773 14.298v62.2l-24.773-14.298zm0-90 24.773 14.298v62.2l-24.773-14.298zm0-90 24.773 14.298v62.2l-24.773-14.298zm0-90 24.773 14.298v62.2l-24.773-14.298zm0-90 24.773 14.298v62.2l-24.773-14.298zm0-90 24.773 14.298v62.2l-24.773-14.298zm0-90 24.773 14.298v62.2l-24.773-14.298zm0-90 24.773 14.298v62.2l-24.773-14.298zm0-90 24.773 14.298v62.2l-24.773-14.298zm0-90 24.773 14.298v62.2l-24.773-14.298zm0-90 24.773 14.298v62.2l-24.773-14.298zm0-90 24.773 14.298v62.2l-24.773-14.298zm0-90 24.773 14.298v62.2l-24.773-14.298zm-60.001 2401 24.774 14.298v62.2l-24.774-14.298zm0-90 24.774 14.298v62.2l-24.774-14.298zm0-90 24.774 14.298v62.2l-24.774-14.298zm0-90 24.774 14.298v62.2l-24.774-14.298zm0-90 24.774 14.298v62.2l-24.774-14.298zm0-90 24.774 14.298v62.2l-24.774-14.298zm0-90 24.774 14.298v62.2l-24.774-14.298zm0-90 24.774 14.298v62.2l-24.774-14.298zm0-90 24.774 14.298v62.2l-24.774-14.298zm0-90 24.774 14.298v62.2l-24.774-14.298zm0-90 24.774 14.298v62.2l-24.774-14.298zm0-90 24.774 14.298v62.2l-24.774-14.298zm0-90 24.774 14.298v62.2l-24.774-14.298zm0-90 24.774 14.298v62.2l-24.774-14.298zm0-97 24.774 14.298v62.2l-24.774-14.298zm0-90 24.774 14.298v62.2l-24.774-14.298zm0-90 24.774 14.298v62.2l-24.774-14.298zm0-90 24.774 14.298v62.2l-24.774-14.298zm0-90 24.774 14.298v62.2l-24.774-14.298zm0-90 24.774 14.298v62.2l-24.774-14.298zm0-90 24.774 14.298v62.2l-24.774-14.298zm0-90 24.774 14.298v62.2l-24.774-14.298zm0-90 24.774 14.298v62.2l-24.774-14.298zm0-90 24.774 14.298v62.2l-24.774-14.298zm0-90 24.774 14.298v62.2l-24.774-14.298zm0-90 24.774 14.298v62.2l-24.774-14.298zm0-90 24.774 14.298v62.2l-24.774-14.298zm0-90 24.774 14.298v62.2l-24.774-14.298z" fill="none" opacity=".6"/><path d="m254.613 2672.751 24.774 14.298v62.2l-24.774-14.298zm0-90 24.774 14.298v62.2l-24.774-14.298zm0-90 24.774 14.298v62.2l-24.774-14.298zm0-90 24.774 14.298v62.2l-24.774-14.298zm0-90 24.774 14.298v62.2l-24.774-14.298zm0-90 24.774 14.298v62.2l-24.774-14.298zm0-97 24.774 14.298v62.2l-24.774-14.298zm0-90 24.774 14.298v62.2l-24.774-14.298zm0-90 24.774 14.298v62.2l-24.774-14.298zm0-90 24.774 14.298v62.2l-24.774-14.298zm0-90 24.774 14.298v62.2l-24.774-14.298zm0-90 24.774 14.298v62.2l-24.774-14.298zm0-90 24.774 14.298v62.2l-24.774-14.298zm0-90 24.774 14.298v62.2l-24.774-14.298zm0-90 24.774 14.298v62.2l-24.774-14.298zm0-90 24.774 14.298v62.2l-24.774-14.298zm0-90 24.774 14.298v62.2l-24.774-14.298zm0-90 24.774 14.298v62.2l-24.774-14.298zm0-90 24.774 14.298v62.2l-24.774-14.298zm0-90 24.774 14.298v62.2l-24.774-14.298zm-60 1683 24.774 14.298v62.2l-24.774-14.298zm0-90 24.774 14.298v62.2l-24.774-14.298zm0-90 24.774 14.298v62.2l-24.774-14.298zm0-90 24.774 14.298v62.2l-24.774-14.298zm0-90 24.774 14.298v62.2l-24.774-14.298zm0-90 24.774 14.298v62.2l-24.774-14.298zm0-97 24.774 14.298v62.2l-24.774-14.298zm0-90 24.774 14.298v62.2l-24.774-14.298zm0-90 24.774 14.298v62.2l-24.774-14.298zm0-90 24.774 14.298v62.2l-24.774-14.298zm0-90 24.774 14.298v62.2l-24.774-14.298zm0-90 24.774 14.298v62.2l-24.774-14.298zm0-90 24.774 14.298v62.2l-24.774-14.298zm0-90 24.774 14.298v62.2l-24.774-14.298zm0-90 24.774 14.298v62.2l-24.774-14.298zm0-90 24.774 14.298v62.2l-24.774-14.298zm0-90 24.774 14.298v62.2l-24.774-14.298zm0-90 24.774 14.298v62.2l-24.774-14.298zm0-90 24.774 14.298v62.2l-24.774-14.298zm0-90 24.774 14.298v62.2l-24.774-14.298zm-60.999 1683 24.773 14.298v62.2l-24.773-14.298zm0-90 24.773 14.298v62.2l-24.773-14.298zm0-90 24.773 14.298v62.2l-24.773-14.298zm0-90 24.773 14.298v62.2l-24.773-14.298zm0-90 24.773 14.298v62.2l-24.773-14.298zm0-90 24.773 14.298v62.2l-24.773-14.298zm0-97 24.773 14.298v62.2l-24.773-14.298zm0-90 24.773 14.298v62.2l-24.773-14.298zm0-90 24.773 14.298v62.2l-24.773-14.298zm0-90 24.773 14.298v62.2l-24.773-14.298zm0-90 24.773 14.298v62.2l-24.773-14.298zm0-90 24.773 14.298v62.2l-24.773-14.298zm0-90 24.773 14.298v62.2l-24.773-14.298zm0-90 24.773 14.298v62.2l-24.773-14.298zm0-90 24.773 14.298v62.2l-24.773-14.298zm0-90 24.773 14.298v62.2l-24.773-14.298zm0-90 24.773 14.298v62.2l-24.773-14.298zm0-90 24.773 14.298v62.2l-24.773-14.298zm0-90 24.773 14.298v62.2l-24.773-14.298zm0-90 24.773 14.298v62.2l-24.773-14.298zm-60.001 1681 24.774 14.298v62.2l-24.774-14.298zm0-90 24.774 14.298v62.2l-24.774-14.298zm0-90 24.774 14.298v62.2l-24.774-14.298zm0-90 24.774 14.298v62.2l-24.774-14.298zm0-90 24.774 14.298v62.2l-24.774-14.298zm0-90 24.774 14.298v62.2l-24.774-14.298zm0-97 24.774 14.298v62.2l-24.774-14.298zm0-90 24.774 14.298v62.2l-24.774-14.298zm0-90 24.774 14.298v62.2l-24.774-14.298zm0-90 24.774 14.298v62.2l-24.774-14.298zm0-90 24.774 14.298v62.2l-24.774-14.298zm0-90 24.774 14.298v62.2l-24.774-14.298zm0-90 24.774 14.298v62.2l-24.774-14.298zm0-90 24.774 14.298v62.2l-24.774-14.298zm0-90 24.774 14.298v62.2l-24.774-14.298zm0-90 24.774 14.298v62.2l-24.774-14.298zm0-90 24.774 14.298v62.2l-24.774-14.298zm0-90 24.774 14.298v62.2l-24.774-14.298zm0-90 24.774 14.298v62.2l-24.774-14.298zm0-90 24.774 14.298v62.2l-24.774-14.298z" fill="url(#b)"/><path d="m254.613 2097.951v-62.2l24.774 14.298v62.2zm0-332.2 24.774 14.298v62.2l-24.774-14.298zm0-360 24.774 14.298v62.2l-24.774-14.298zm-60 596 24.774 14.298v62.2l-24.774-14.298zm0-180 24.774 14.298v62.2l-24.774-14.298zm0-360 24.774 14.298v62.2l-24.774-14.298zm0-270 24.774 14.298v62.2l-24.774-14.298zm-60.999 963 24.773 14.298v62.2l-24.773-14.298zm0-907 24.773 14.298v62.2l-24.773-14.298zm0-270 24.773 14.298v62.2l-24.773-14.298zm-60.001 1141 24.774 14.298v62.2l-24.774-14.298zm0-97 24.774 14.298v62.2l-24.774-14.298zm0-180 24.774 14.298v62.2l-24.774-14.298zm0-90 24.774 14.298v62.2l-24.774-14.298zm0-540 24.774 14.298v62.2l-24.774-14.298z" fill="#fffdff"/><g fill="url(#c)"><path d="m220 1476v62l-55 29v-89l29.613-16.249z"/><path d="m280 1420.249v62l-55 29v-89l29.613-16.249z"/><path d="m159 1262.249v62l-55 29v-89l29.613-16.249z"/><path d="m220 1206.249v62l-55 29v-89l29.613-16.249z"/><path d="m99 1226.249v62l-55 29v-89l29.613-16.249z"/><path d="m159 992.249v62l-55 29v-89l29.613-16.249z"/></g><path d="m374.5 707.313h374.25v2859.187h-374.25z" fill="#a663fb"/><path d="m374.5 707.313h374.25v5895h-374.25z" fill="url(#d)"/><path d="m647.613 3364.249v-62.2l24.774-14.298v62.2zm0-152.2 24.774-14.298v62.2l-24.774 14.298zm0-90 24.774-14.298v62.2l-24.774 14.298zm0-90 24.774-14.298v62.2l-24.774 14.298zm0-90 24.774-14.298v62.2l-24.774 14.298zm0-90 24.774-14.298v62.2l-24.774 14.298zm0-90 24.774-14.298v62.2l-24.774 14.298zm0-90 24.774-14.298v62.2l-24.774 14.298zm0-90 24.774-14.298v62.2l-24.774 14.298zm0-90 24.774-14.298v62.2l-24.774 14.298zm0-90 24.774-14.298v62.2l-24.774 14.298zm0-90 24.774-14.298v62.2l-24.774 14.298zm0-90 24.774-14.298v62.2l-24.774 14.298zm0-90 24.774-14.298v62.2l-24.774 14.298zm0-97 24.774-14.298v62.2l-24.774 14.298zm0-90 24.774-14.298v62.2l-24.774 14.298zm0-90 24.774-14.298v62.2l-24.774 14.298zm0-90 24.774-14.298v62.2l-24.774 14.298zm0-90 24.774-14.298v62.2l-24.774 14.298zm0-90 24.774-14.298v62.2l-24.774 14.298zm0-90 24.774-14.298v62.2l-24.774 14.298zm0-90 24.774-14.298v62.2l-24.774 14.298zm0-90 24.774-14.298v62.2l-24.774 14.298zm0-90 24.774-14.298v62.2l-24.774 14.298zm0-90 24.774-14.298v62.2l-24.774 14.298zm0-90 24.774-14.298v62.2l-24.774 14.298zm0-90 24.774-14.298v62.2l-24.774 14.298zm0-90 24.774-14.298v62.2l-24.774 14.298zm-60 2473 24.774-14.298v62.2l-24.774 14.298zm0-90 24.774-14.298v62.2l-24.774 14.298zm0-90 24.774-14.298v62.2l-24.774 14.298zm0-90 24.774-14.298v62.2l-24.774 14.298zm0-90 24.774-14.298v62.2l-24.774 14.298zm0-90 24.774-14.298v62.2l-24.774 14.298zm0-90 24.774-14.298v62.2l-24.774 14.298zm0-90 24.774-14.298v62.2l-24.774 14.298zm0-90 24.774-14.298v62.2l-24.774 14.298zm0-90 24.774-14.298v62.2l-24.774 14.298zm0-90 24.774-14.298v62.2l-24.774 14.298zm0-90 24.774-14.298v62.2l-24.774 14.298zm0-90 24.774-14.298v62.2l-24.774 14.298zm0-90 24.774-14.298v62.2l-24.774 14.298zm0-97 24.774-14.298v62.2l-24.774 14.298zm0-90 24.774-14.298v62.2l-24.774 14.298zm0-90 24.774-14.298v62.2l-24.774 14.298zm0-90 24.774-14.298v62.2l-24.774 14.298zm0-90 24.774-14.298v62.2l-24.774 14.298zm0-90 24.774-14.298v62.2l-24.774 14.298zm0-90 24.774-14.298v62.2l-24.774 14.298zm0-90 24.774-14.298v62.2l-24.774 14.298zm0-90 24.774-14.298v62.2l-24.774 14.298zm0-90 24.774-14.298v62.2l-24.774 14.298zm0-90 24.774-14.298v62.2l-24.774 14.298zm0-90 24.774-14.298v62.2l-24.774 14.298zm0-90 24.774-14.298v62.2l-24.774 14.298zm0-90 24.774-14.298v62.2l-24.774 14.298zm-61 2471 24.774-14.298v62.2l-24.774 14.298zm0-90 24.774-14.298v62.2l-24.774 14.298zm0-90 24.774-14.298v62.2l-24.774 14.298zm0-90 24.774-14.298v62.2l-24.774 14.298zm0-90 24.774-14.298v62.2l-24.774 14.298zm0-90 24.774-14.298v62.2l-24.774 14.298zm0-90 24.774-14.298v62.2l-24.774 14.298zm0-90 24.774-14.298v62.2l-24.774 14.298zm0-90 24.774-14.298v62.2l-24.774 14.298zm0-90 24.774-14.298v62.2l-24.774 14.298zm0-90 24.774-14.298v62.2l-24.774 14.298zm0-90 24.774-14.298v62.2l-24.774 14.298zm0-90 24.774-14.298v62.2l-24.774 14.298zm0-90 24.774-14.298v62.2l-24.774 14.298zm0-97 24.774-14.298v62.2l-24.774 14.298zm0-90 24.774-14.298v62.2l-24.774 14.298zm0-90 24.774-14.298v62.2l-24.774 14.298zm0-90 24.774-14.298v62.2l-24.774 14.298zm0-90 24.774-14.298v62.2l-24.774 14.298zm0-90 24.774-14.298v62.2l-24.774 14.298zm0-90 24.774-14.298v62.2l-24.774 14.298zm0-90 24.774-14.298v62.2l-24.774 14.298zm0-90 24.774-14.298v62.2l-24.774 14.298zm0-90 24.774-14.298v62.2l-24.774 14.298zm0-90 24.774-14.298v62.2l-24.774 14.298zm0-90 24.774-14.298v62.2l-24.774 14.298zm0-90 24.774-14.298v62.2l-24.774 14.298zm0-90 24.774-14.298v62.2l-24.774 14.298zm-60 2471 24.774-14.298v62.2l-24.774 14.298zm0-90 24.774-14.298v62.2l-24.774 14.298zm0-90 24.774-14.298v62.2l-24.774 14.298zm0-90 24.774-14.298v62.2l-24.774 14.298zm0-90 24.774-14.298v62.2l-24.774 14.298zm0-90 24.774-14.298v62.2l-24.774 14.298zm0-90 24.774-14.298v62.2l-24.774 14.298zm0-90 24.774-14.298v62.2l-24.774 14.298zm0-90 24.774-14.298v62.2l-24.774 14.298zm0-90 24.774-14.298v62.2l-24.774 14.298zm0-90 24.774-14.298v62.2l-24.774 14.298zm0-90 24.774-14.298v62.2l-24.774 14.298zm0-90 24.774-14.298v62.2l-24.774 14.298zm0-90 24.774-14.298v62.2l-24.774 14.298zm0-97 24.774-14.298v62.2l-24.774 14.298zm0-90 24.774-14.298v62.2l-24.774 14.298zm0-90 24.774-14.298v62.2l-24.774 14.298zm0-90 24.774-14.298v62.2l-24.774 14.298zm0-90 24.774-14.298v62.2l-24.774 14.298zm0-90 24.774-14.298v62.2l-24.774 14.298zm0-90 24.774-14.298v62.2l-24.774 14.298zm0-90 24.774-14.298v62.2l-24.774 14.298zm0-90 24.774-14.298v62.2l-24.774 14.298zm0-90 24.774-14.298v62.2l-24.774 14.298zm0-90 24.774-14.298v62.2l-24.774 14.298zm0-90 24.774-14.298v62.2l-24.774 14.298zm0-90 24.774-14.298v62.2l-24.774 14.298zm0-90 24.774-14.298v62.2l-24.774 14.298z" fill="none" opacity=".702"/><path d="m647.613 2582.049 24.774-14.298v62.2l-24.774 14.298zm0-90 24.774-14.298v62.2l-24.774 14.298zm0-90 24.774-14.298v62.2l-24.774 14.298zm0-90 24.774-14.298v62.2l-24.774 14.298zm0-90 24.774-14.298v62.2l-24.774 14.298zm0-90 24.774-14.298v62.2l-24.774 14.298zm0-97 24.774-14.298v62.2l-24.774 14.298zm0-90 24.774-14.298v62.2l-24.774 14.298zm0-90 24.774-14.298v62.2l-24.774 14.298zm0-90 24.774-14.298v62.2l-24.774 14.298zm0-90 24.774-14.298v62.2l-24.774 14.298zm0-90 24.774-14.298v62.2l-24.774 14.298zm0-90 24.774-14.298v62.2l-24.774 14.298zm0-90 24.774-14.298v62.2l-24.774 14.298zm0-90 24.774-14.298v62.2l-24.774 14.298zm0-90 24.774-14.298v62.2l-24.774 14.298zm0-90 24.774-14.298v62.2l-24.774 14.298zm0-90 24.774-14.298v62.2l-24.774 14.298zm0-90 24.774-14.298v62.2l-24.774 14.298zm0-90 24.774-14.298v62.2l-24.774 14.298zm-60 1753 24.774-14.298v62.2l-24.774 14.298zm0-90 24.774-14.298v62.2l-24.774 14.298zm0-90 24.774-14.298v62.2l-24.774 14.298zm0-90 24.774-14.298v62.2l-24.774 14.298zm0-90 24.774-14.298v62.2l-24.774 14.298zm0-90 24.774-14.298v62.2l-24.774 14.298zm0-97 24.774-14.298v62.2l-24.774 14.298zm0-90 24.774-14.298v62.2l-24.774 14.298zm0-90 24.774-14.298v62.2l-24.774 14.298zm0-90 24.774-14.298v62.2l-24.774 14.298zm0-90 24.774-14.298v62.2l-24.774 14.298zm0-90 24.774-14.298v62.2l-24.774 14.298zm0-90 24.774-14.298v62.2l-24.774 14.298zm0-90 24.774-14.298v62.2l-24.774 14.298zm0-90 24.774-14.298v62.2l-24.774 14.298zm0-90 24.774-14.298v62.2l-24.774 14.298zm0-90 24.774-14.298v62.2l-24.774 14.298zm0-90 24.774-14.298v62.2l-24.774 14.298zm0-90 24.774-14.298v62.2l-24.774 14.298zm0-90 24.774-14.298v62.2l-24.774 14.298zm-61 1751 24.774-14.298v62.2l-24.774 14.298zm0-90 24.774-14.298v62.2l-24.774 14.298zm0-90 24.774-14.298v62.2l-24.774 14.298zm0-90 24.774-14.298v62.2l-24.774 14.298zm0-90 24.774-14.298v62.2l-24.774 14.298zm0-90 24.774-14.298v62.2l-24.774 14.298zm0-97 24.774-14.298v62.2l-24.774 14.298zm0-90 24.774-14.298v62.2l-24.774 14.298zm0-90 24.774-14.298v62.2l-24.774 14.298zm0-90 24.774-14.298v62.2l-24.774 14.298zm0-90 24.774-14.298v62.2l-24.774 14.298zm0-90 24.774-14.298v62.2l-24.774 14.298zm0-90 24.774-14.298v62.2l-24.774 14.298zm0-90 24.774-14.298v62.2l-24.774 14.298zm0-90 24.774-14.298v62.2l-24.774 14.298zm0-90 24.774-14.298v62.2l-24.774 14.298zm0-90 24.774-14.298v62.2l-24.774 14.298zm0-90 24.774-14.298v62.2l-24.774 14.298zm0-90 24.774-14.298v62.2l-24.774 14.298zm0-90 24.774-14.298v62.2l-24.774 14.298zm-60 1751 24.774-14.298v62.2l-24.774 14.298zm0-90 24.774-14.298v62.2l-24.774 14.298zm0-90 24.774-14.298v62.2l-24.774 14.298zm0-90 24.774-14.298v62.2l-24.774 14.298zm0-90 24.774-14.298v62.2l-24.774 14.298zm0-90 24.774-14.298v62.2l-24.774 14.298zm0-97 24.774-14.298v62.2l-24.774 14.298zm0-90 24.774-14.298v62.2l-24.774 14.298zm0-90 24.774-14.298v62.2l-24.774 14.298zm0-90 24.774-14.298v62.2l-24.774 14.298zm0-90 24.774-14.298v62.2l-24.774 14.298zm0-90 24.774-14.298v62.2l-24.774 14.298zm0-90 24.774-14.298v62.2l-24.774 14.298zm0-90 24.774-14.298v62.2l-24.774 14.298zm0-90 24.774-14.298v62.2l-24.774 14.298zm0-90 24.774-14.298v62.2l-24.774 14.298zm0-90 24.774-14.298v62.2l-24.774 14.298zm0-90 24.774-14.298v62.2l-24.774 14.298zm0-90 24.774-14.298v62.2l-24.774 14.298zm0-90 24.774-14.298v62.2l-24.774 14.298z" fill="url(#e)"/><path d="m647.613 2007.249v-62.2l24.774-14.298v62.2zm0-332.2 24.774-14.298v62.2l-24.774 14.298zm0-360 24.774-14.298v62.2l-24.774 14.298zm0-180 24.774-14.298v62.2l-24.774 14.298zm0-270 24.774-14.298v62.2l-24.774 14.298zm-60 1116 24.774-14.298v62.2l-24.774 14.298zm0-360 24.774-14.298v62.2l-24.774 14.298zm-61 34 24.774-14.298v62.2l-24.774 14.298zm0-270 24.774-14.298v62.2l-24.774 14.298zm-60 574 24.774-14.298v62.2l-24.774 14.298zm0-270 24.774-14.298v62.2l-24.774 14.298z" fill="#f7c5c8"/><path d="m374.274 491.488 374.49 215.975-373.999 215.699-374.49-215.975z" fill="#7c99dd"/><path d="m113.525 573.819h523.95v111.431l-260.802 152-263.148-152z" fill="#1c1275"/><path d="m375.5 573.819h261.975v111.431l-261.975 153z" fill="#c299db"/><path d="m375.342 422.742 262.142 151.182-261.799 150.989-262.142-151.182z" fill="#7c99dd"/><path d="m218.321 458.491h314.37v116.859l-156.481 91.2-157.889-91.2z" fill="#1c1275"/><path d="m375.506 458.491h157.185v116.859l-157.185 91.8z" fill="#c299db"/><path d="m375.411 367.845 157.286 90.709-157.08 90.594-157.285-90.71z" fill="#7c99dd"/><path d="m375.351.34h.7l.563 499.289-75.263-44.592z" fill="#1c1275"/><path d="m376.501 10.34h-.45l75.599 444.697-75.149 44.688z" fill="#c299db"/><path d="m371 702 4.12 2-.12 14-8-5z" fill="#1a005e"/><path d="m379 702-4.12 2 .12 14 8-5z" fill="#c299db"/><path d="m379 702-4.12 2-3.88-2-43-307h95z" fill="none"/><path d="m379 702-4.12 2-3.88-2-43-307h95z" fill="url(#f)"/><path d="m128 563 4.12 2-.12 14-8-5z" fill="#1a005e"/><path d="m136 563-4.12 2 .12 14 8-5z" fill="#c299db"/><path d="m136 563-4.12 2-3.88-2 157-277 45 50z" fill="none"/><path d="m136 563-4.12 2-3.88-2 157-277 45 50z" fill="url(#h)"/><path d="m616 563-4.12 2 .12 14 8-5z" fill="#c9a1e8"/><path d="m608 563 4.12 2-.12 14-8-5z" fill="#1c1275"/><path d="m608 563 4.12 2 3.88-2-157-277-45 50z" fill="none"/><path d="m608 563 4.12 2 3.88-2-157-277-45 50z" fill="url(#i)"/><g transform="translate(43 851)"><path d="m237 929.249v62l-55 29v-89l29.613-16.249z" fill="url(#c)"/><path d="m56 915.249v62l-55 29v-89l29.613-16.249z" fill="url(#c)"/><path d="m176 985.249v62l-55 29v-89l29.613-16.249z" fill="url(#c)"/><path d="m56 1005.249v62l-55 29v-89l29.613-16.249z" fill="url(#c)"/><path d="m237 1199.249v62l-55 29v-89l29.613-16.249z" fill="url(#c)"/><path d="m177 1165.249v62l-55 29v-89l29.613-16.249z" fill="url(#c)"/><path d="m55 1185.249v62l-55 29v-89l29.613-16.249z" fill="url(#c)"/><path d="m56 1282.249v62l-55 29v-89l29.613-16.249z" fill="url(#c)"/><path d="m116 1318.249v62l-55 29v-89l29.613-16.249z" fill="url(#c)"/><g fill="url(#j)"><path d="m604 14.2150019v61.8541803l55 28.9308178v-88.7890583l-29.613333-16.2109417z"/><path d="m604 284.215002v61.85418l55 28.930818v-88.789058l-29.613333-16.210942z"/><path d="m604 464.215002v61.85418l55 28.930818v-88.789058l-29.613333-16.210942z"/><path d="m483 534.215002v61.85418l55 28.930818v-88.789058l-29.613333-16.210942z"/><path d="m423 838.215002v61.85418l55 28.930818v-88.789058l-29.613333-16.210942z"/><path d="m483 804.215002v61.85418l55 28.930818v-88.789058l-29.613333-16.210942z"/><path d="m544 770.215002v61.85418l55 28.930818v-88.789058l-29.613333-16.210942z"/><path d="m604 824.215002v61.85418l55 28.930818v-88.789058l-29.613333-16.210942z"/><path d="m423 1108.215v61.85418l55 28.93082v-88.78906l-29.613333-16.21094z"/><path d="m544 1130.215v61.85418l55 28.93082v-88.78906l-29.613333-16.21094z"/><path d="m604 1094.215v61.85418l55 28.93082v-88.78906l-29.613333-16.21094z"/></g></g></g></svg>