<svg preserveAspectRatio="xMidYMid meet" viewBox="0 0 2995 12301" xmlns="http://www.w3.org/2000/svg" xmlns:xlink="http://www.w3.org/1999/xlink"><linearGradient id="a" x1="0%" x2="0%" y1="100%" y2="0%"><stop offset="0" stop-color="#110c35" stop-opacity="0"/><stop offset="1" stop-color="#110c35"/></linearGradient><g fill="none" fill-rule="evenodd" transform="translate(0 -1)"><path d="m.484 864.265h2994v11436.751h-2994z" fill="#0d092a"/><path d="m1496.581.968 1497.958 863.899-1495.996 862.797-1497.958-863.901z" fill="#2d1c9e"/><path d="m653.704 6833.554v-248.799l99.093 57.191v248.799zm0-636.799 99.093 57.19v248.8l-99.093-57.191zm0-360.001 99.093 57.191v248.8l-99.093-57.191zm0-360 99.093 57.191v248.8l-99.093-57.19zm0-360 99.093 57.191v248.801l-99.093-57.191zm0-360 99.093 57.191v248.801l-99.093-57.191zm0-360 99.093 57.191v248.801l-99.093-57.191zm0-360 99.093 57.191v248.801l-99.093-57.191zm0-360 99.093 57.191v248.801l-99.093-57.191zm0-360 99.093 57.191v248.799l-99.093-57.189zm0-359.999 99.093 57.19v248.8l-99.093-57.191zm0-360 99.093 57.191v248.799l-99.093-57.191zm0-360 99.093 57.191v248.799l-99.093-57.191zm0-360 99.093 57.191v248.799l-99.093-57.191zm0-360 99.093 57.191v248.799l-99.093-57.191zm-244 4931.999 99.093 57.191v248.8l-99.093-57.191zm0-388 99.093 57.191v248.801l-99.093-57.191zm0-360 99.093 57.191v248.801l-99.093-57.191zm0-360 99.093 57.191v248.801l-99.093-57.191zm0-359.999 99.093 57.19v248.799l-99.093-57.189zm0-360 99.093 57.191v248.799l-99.093-57.191zm0-360 99.093 57.191v248.799l-99.093-57.191zm0-360 99.093 57.191v248.799l-99.093-57.191zm0-360 99.093 57.191v248.799l-99.093-57.191zm0-360 99.093 57.191v248.799l-99.093-57.191zm0-360 99.093 57.191v248.799l-99.093-57.191zm0-360 99.093 57.189v248.801l-99.093-57.191zm0-360.001 99.093 57.191v248.8l-99.093-57.191zm0-360 99.093 57.191v248.8l-99.093-57.19zm0-360 99.093 57.191v248.801l-99.093-57.191zm-240 4924.001 99.092 57.191v248.799l-99.092-57.191zm0-388.001 99.092 57.191v248.801l-99.092-57.191zm0-360 99.092 57.191v248.801l-99.092-57.191zm0-360 99.092 57.191v248.801l-99.092-57.191zm0-360 99.092 57.191v248.801l-99.092-57.191zm0-360 99.092 57.191v248.801l-99.092-57.191zm0-360 99.092 57.191v248.801l-99.092-57.191zm0-359.999 99.092 57.19v248.8l-99.092-57.19zm0-360 99.092 57.191v248.799l-99.092-57.191zm0-360 99.092 57.191v248.799l-99.092-57.191zm0-360 99.092 57.191v248.799l-99.092-57.191zm0-360 99.092 57.191v248.799l-99.092-57.191zm0-360 99.092 57.191v248.799l-99.092-57.191zm0-360 99.092 57.191v248.799l-99.092-57.191zm0-360 99.092 57.189v248.801l-99.092-57.191z" fill="#0b0826"/><path d="m670.704 6823.554v-248.799l99.093 57.191v248.799zm0-636.799 99.093 57.19v248.8l-99.093-57.19zm0-360.001 99.093 57.191v248.801l-99.093-57.191zm0-360 99.093 57.191v248.801l-99.093-57.191zm0-360 99.093 57.191v248.801l-99.093-57.191zm0-360 99.093 57.191v248.801l-99.093-57.191zm0-360 99.093 57.191v248.801l-99.093-57.191zm0-360 99.093 57.191v248.801l-99.093-57.191zm0-359.999 99.093 57.19v248.801l-99.093-57.191zm0-360 99.093 57.191v248.799l-99.093-57.19zm0-360 99.093 57.191v248.799l-99.093-57.191zm0-360 99.093 57.191v248.799l-99.093-57.191zm0-360 99.093 57.191v248.799l-99.093-57.191zm0-360 99.093 57.191v248.799l-99.093-57.191zm0-360 99.093 57.191v248.799l-99.093-57.191zm-244 4931.999 99.093 57.191v248.801l-99.093-57.191zm0-388 99.093 57.191v248.801l-99.093-57.191zm0-360 99.093 57.191v248.801l-99.093-57.191zm0-359.999 99.093 57.19v248.801l-99.093-57.191zm0-360 99.093 57.191v248.799l-99.093-57.19zm0-360 99.093 57.191v248.799l-99.093-57.191zm0-360 99.093 57.191v248.799l-99.093-57.191zm0-360 99.093 57.191v248.799l-99.093-57.191zm0-360 99.093 57.191v248.799l-99.093-57.191zm0-360 99.093 57.191v248.799l-99.093-57.191zm0-360 99.093 57.191v248.799l-99.093-57.191zm0-360 99.093 57.19v248.8l-99.093-57.19zm0-360.001 99.093 57.191v248.801l-99.093-57.191zm0-360 99.093 57.191v248.801l-99.093-57.191zm0-360 99.093 57.191v248.801l-99.093-57.191zm-240.001 4924.001 99.093 57.191v248.799l-99.093-57.191zm0-388.001 99.093 57.191v248.801l-99.093-57.191zm0-360 99.093 57.191v248.801l-99.093-57.191zm0-360 99.093 57.191v248.801l-99.093-57.191zm0-360 99.093 57.191v248.801l-99.093-57.191zm0-359.999 99.093 57.19v248.801l-99.093-57.191zm0-360 99.093 57.191v248.8l-99.093-57.191zm0-360 99.093 57.191v248.799l-99.093-57.19zm0-360 99.093 57.191v248.799l-99.093-57.191zm0-360 99.093 57.191v248.799l-99.093-57.191zm0-360 99.093 57.191v248.799l-99.093-57.191zm0-360 99.093 57.191v248.799l-99.093-57.191zm0-360 99.093 57.191v248.799l-99.093-57.191zm0-360 99.093 57.191v248.799l-99.093-57.191zm0-360 99.093 57.19v248.8l-99.093-57.19z" fill="url(#a)" fill-rule="nonzero"/><path d="m146.593 859.539 1037.314-579.671v70.579l-976.564 539.17z" fill="#221482"/><path d="m651.676 1135.181c-.223 1.516-1.606 2.768-3.447 3.641.337 6.663-.322 16.794-.95 24.98-2.241 7.416-2.477 41.866-2.477 41.866-7.314 4.85-11.735-1.749-8.992-7.443 3.814-7.92-1.861-48.439.867-61.9 3.237-22.17-10.015-74.676 5.468-92.036 3.719-4.17 13.523-10.639 18.278 1.143 2.386 5.912-7.455 81.001-8.747 89.749z" fill="#3926b8"/><path d="m731.297 1224.557c-.153 7.184-2.407 21.421-8.109 26.741l.15.128-62.197 62.633c-9.095 9.159-15.335 20.782-17.957 33.448l-18.655 90.109c-.088.097-.181.185-.271.279-.118 1.184-.427 2.368-.782 3.507-2.597 8.35-7.278 16.037-13.496 22.162-2.942 2.897-6.392 5.53-10.441 6.292-2.008.379-4.461.071-5.479-1.708-.757-1.323-.446-2.978-.094-4.463 1.684-7.112 3.785-14.124 6.286-20.988 1.066-2.927 2.306-5.93 4.199-8.345l2.143-28.781c-7.381 6.958-15.144 13.506-23.264 19.576-1.078.807-2.525 1.631-3.672.927-1.422-.873-.882-3.043-.172-4.557 2.331-4.968 3.512-8.102 5.843-13.071 2.755-5.872 4.346-10.106 5.592-16.78-.034-.069-.075-.133-.106-.204l-40.63-112.419c-3.016-8.345.087-17.677 7.49-22.525l85.034-55.683c.66-2.127 1.43-4.158 2.329-6.157 7.577-8.501 23.31-7.688 34.581-6.269 12.853 1.618 27.838 3.848 39.655 9.534 9.66 4.649 12.236 16.547 12.023 26.614zm-143.808 66.136 21.107 87.983 3.795-50.972c.586-7.874 3.296-15.439 7.839-21.883l40.619-57.621-68.963 33.2c-3.464 1.667-5.297 5.541-4.397 9.293z" fill="#120d39"/><path d="m730.014 1057.721c-27.953-23.656-74.237-30.333-82.942-18.099-4.47 5.435-10.368 13.327-5.036 31.929 7.88 31.335 6.729 70.618 4.4 103.413-.512 7.534-3.826 15.975.051 22.507 3.602 5.239 39.905 23.041 49.904 26.442 23.391 6.514 36.839-3.693 39.521-15.903 15.256-61.535 13.965-123.686-5.898-150.289z" fill="#3320ac"/><path d="m671.097 1035.952c7.083-2.111 14.291-.996 20.761 2.807 3.151 1.852 4.896 5.584 3.961 9.13-2.072 7.855-8.189 15.206-16.479 19.036-3.648 1.685-8.078.43-10.271-2.949-4.011-6.183-5.778-14.924-3.299-22.838.781-2.493 2.832-4.443 5.327-5.186z" fill="#2e1da2"/><path d="m753.629 1167.44c-5.291 14.149-32.006 44.038-53.383 59.226-.251 1.394-.867 2.711-1.827 3.633-4.636 4.448-9.971 5.886-9.099 4.932-1.678 1.311-2.903 3.121-4.178 4.839-1.565 2.11-3.28 4.108-5.126 5.974-.661.669-1.357 1.331-2.207 1.728-2.033.948-4.409.182-6.514-.59-.954-.35-1.931-.714-2.7-1.381-.768-.666-1.295-1.714-1.065-2.708.271-1.167 1.509-2.095 1.306-3.277-1.621 1.373-3.663 2.236-5.773 2.44.35-1.794 1.448-3.335 2.517-4.814 3.883-5.368 8.061-10.978 14.135-13.585 2.823-1.212 5.862-1.693 8.834-2.391 12.489-10.27 10.101-22.621 35.263-53.441 3.945-4.832 8.458-9.065 7.003-15.141-6.787-28.337-18.958-66.908-10.286-88.596 11.547-17.965 24.709 19.62 26.676 26.239 5.811 19.557 13.848 57.057 6.424 76.913zm-71.276-122.081c-2.153 2.747-4.902 5.709-8.265 4.772-3.479-.971-5.523-5.514-6.996-9.464l-.022-.06c-1.047-2.809-4.377-3.857-6.916-2.28-2.079 1.292-4.112 2.072-5.923 2.1-16.406.256-31.229-33.628-28.91-47.537 3.324-19.946 24.263-30.184 37.705-24.173 12.552 5.614 22.596 27.762 19.543 43.374-1.471 7.519-.685 15.322 2.227 22.405.448 1.089.753 1.905.815 2.306.526 3.407-1.424 6.217-3.258 8.557z" fill="#3926b8"/><path d="m720.529 1132.849c-6.598-25.964-7.965-54.549-1.054-71.833 11.547-17.966 28.323 21.866 30.29 28.485 2.471 8.317 5.733 19.873 7.267 31.943-8.335 6.863-26.279 11.537-36.503 11.405zm-87.341-30.071c-2.308-23.186-2.736-49.288 7.118-60.336 3.719-4.171 17.201-10.639 21.956 1.143 1.515 3.754-2.526 44.505-6.093 69.892-8.759 4.85-21.71-1.385-22.981-10.699z" fill="#3320ac"/><path d="m687.734 998.331c-.208-6.568-.47-13.361-3.328-19.271-2.859-5.911-9.064-10.719-15.538-9.784-.417.06-.816.183-1.219.289-.311-1.211-.719-2.358-1.358-3.312-4.315-6.447-14.641-8.676-21.623-6.411-4.553 1.476-8.397 4.542-12.131 7.546-4.185 3.368-8.381 6.744-12.166 10.56-1.18 1.19-2.402 2.473-4.013 2.921-1.612.448-3.7-.368-3.949-2.03.207 5.615 2.017 11.383 6.044 15.282s10.328 5.048 15.432 2.752c16.476-7.413 22.946-5.767 25.61-1.283 2.754 4.637 5.425 9.307 8.656 13.622 2.555-5.015 6.975-8.3 9.176-4.008 1.976 3.854-2.212 8.939-1.873 13.803.178 2.547 4.516 4.445 7.064 4.93 4.928.938 5.906-3.871 5.785-7.676-.189-5.977-.379-11.954-.569-17.93z" fill="#3320ac"/><path d="m800.171 659.555 299.299 172.799-106.901 61.721-299.298-172.799z" fill="#3321a4"/><path d="m693.077 721.052 303.096 172.496v38.4l-303.096-172.495z" fill="#28188f"/><path d="m996.393 891.749 104.464-60.299v37.8l-104.464 60.299z" fill="#89aafb"/></g></svg>