<svg preserveAspectRatio="xMidYMid meet" viewBox="0 0 640 3718" xmlns="http://www.w3.org/2000/svg" xmlns:xlink="http://www.w3.org/1999/xlink"><linearGradient id="a" x1="0%" x2="0%" y1="100%" y2="0%"><stop offset=".15" stop-color="#0d0a1f"/><stop offset=".43" stop-color="#4225b2"/><stop offset=".61" stop-color="#8748d7"/><stop offset="1" stop-color="#caa0e0"/></linearGradient><linearGradient id="b" x1="0%" x2="0%" y1="100%" y2="0%"><stop offset=".15" stop-color="#0f031c"/><stop offset=".43" stop-color="#361ca1"/><stop offset=".61" stop-color="#532bb0"/><stop offset="1" stop-color="#a14cc1"/></linearGradient><linearGradient id="c" x1="0%" x2="0%" y1="100%" y2="0%"><stop offset="0" stop-color="#fffffc"/><stop offset=".26" stop-color="#fff"/><stop offset=".47" stop-color="#fb9de8"/><stop offset=".66" stop-color="#ea4fca"/><stop offset=".82" stop-color="#4c45d2"/><stop offset="1" stop-color="#330693"/></linearGradient><linearGradient id="d" x1="0%" x2="0%" y1="100%" y2="0%"><stop offset="0" stop-color="#fffffc"/><stop offset=".26" stop-color="#fff"/><stop offset=".47" stop-color="#ee13eb"/><stop offset=".66" stop-color="#d40cd2"/><stop offset=".82" stop-color="#1e008b"/><stop offset="1" stop-color="#110036"/></linearGradient><linearGradient id="e" x1="0%" x2="0%" y1="100%" y2="0%"><stop offset="0" stop-color="#fffffc"/><stop offset=".26" stop-color="#fff"/><stop offset=".47" stop-color="#ea4fca"/><stop offset=".66" stop-color="#ea4fca"/><stop offset=".82" stop-color="#2d26b0"/><stop offset="1" stop-color="#1a0054"/></linearGradient><linearGradient id="f" x1="0%" x2="0%" y1="100%" y2="0%"><stop offset=".15" stop-color="#0d0a1f"/><stop offset=".43" stop-color="#3b20a3"/><stop offset=".61" stop-color="#7940c1"/><stop offset="1" stop-color="#caa0e0"/></linearGradient><g fill="none"><path d="m243.2 2221.6v-20.4l394.88-230.076v21zm0-98.4 394.88-230.076v21l-394.88 229.476zm0-78 394.88-230.076v21l-394.88 229.476zm0-78 394.88-230.076v21l-394.88 229.476zm0-78 394.88-230.076v21l-394.88 229.476zm0-78 394.88-230.076v21l-394.88 229.476zm0-78 394.88-230.076v21l-394.88 229.476zm0-78 394.88-230.076v21l-394.88 229.476zm0-78 394.88-230.076v21l-394.88 229.476zm0-78 394.88-230.076v21l-394.88 229.476zm0-78 394.88-230.076v21l-394.88 229.476zm0-78 394.88-230.076v21l-394.88 229.476zm0-79.8 394.88-230.076v21l-394.88 229.476zm0-78 394.88-230.076v21l-394.88 229.476zm0-78 394.88-230.076v21l-394.88 229.476zm0-78 394.88-230.076v21l-394.88 229.476zm0-78 394.88-230.076v21l-394.88 229.476zm0-78 394.88-230.076v21l-394.88 229.476zm0-78 394.88-230.076v21l-394.88 229.476zm0-78 394.88-230.076v21l-394.88 229.476zm0-78 394.88-230.076v21l-394.88 229.476zm0-78 394.88-230.076v21l-394.88 229.476zm0-78 394.88-230.076v21l-394.88 229.476zm0-78 394.88-230.076v21l-394.88 229.476z" fill="url(#a)"/><path d="m243.2 2110 380.4-224.4 14.4 8.4-394.8 230.4zm0-78 380.4-224.4 14.4 8.4-394.8 230.4zm0-78 380.4-224.4 14.4 8.4-394.8 230.4zm0-78 380.4-224.4 14.4 8.4-394.8 230.4zm0-78 380.4-224.4 14.4 8.4-394.8 230.4zm0-78 380.4-224.4 14.4 8.4-394.8 230.4zm0-78 380.4-224.4 14.4 8.4-394.8 230.4zm0-78 380.4-224.4 14.4 8.4-394.8 230.4zm0-78 380.4-224.4 14.4 8.4-394.8 230.4zm0-78 380.4-224.4 14.4 8.4-394.8 230.4zm0-78 380.4-224.4 14.4 8.4-394.8 230.4zm0-79.8 380.4-224.4 14.4 8.4-394.8 230.4zm0-78 380.4-224.4 14.4 8.4-394.8 230.4zm0-78 380.4-224.4 14.4 8.4-394.8 230.4zm0-78 380.4-224.4 14.4 8.4-394.8 230.4zm0-78 380.4-224.4 14.4 8.4-394.8 230.4zm0-78 380.4-224.4 14.4 8.4-394.8 230.4zm0-78 380.4-224.4 14.4 8.4-394.8 230.4zm0-78 380.4-224.4 14.4 8.4-394.8 230.4zm0-78 380.4-224.4 14.4 8.4-394.8 230.4zm0-78 380.4-224.4 14.4 8.4-394.8 230.4zm0-78 380.4-224.4 14.4 8.4-394.8 230.4zm0-98.7 394.8-233.7v38.4l-394.8 230.4zm394.8 1600.5-394.8 230.4v-14.4l380.4-224.4z" fill="url(#b)"/><path d="m1.32 2082.724v-21l241.88 139.476v20.4zm0-99 241.88 139.476v20.4l-241.88-138.876zm0-78 241.88 139.476v20.4l-241.88-138.876zm0-78 241.88 139.476v20.4l-241.88-138.876zm0-78 241.88 139.476v20.4l-241.88-138.876zm0-78 241.88 139.476v20.4l-241.88-138.876zm0-78 241.88 139.476v20.4l-241.88-138.876zm0-78 241.88 139.476v20.4l-241.88-138.876zm0-78 241.88 139.476v20.4l-241.88-138.876zm0-78 241.88 139.476v20.4l-241.88-138.876zm0-78 241.88 139.476v20.4l-241.88-138.876zm0-78 241.88 139.476v20.4l-241.88-138.876zm0-79.8 241.88 139.476v20.4l-241.88-138.876zm0-78 241.88 139.476v20.4l-241.88-138.876zm0-78 241.88 139.476v20.4l-241.88-138.876zm0-78 241.88 139.476v20.4l-241.88-138.876zm0-78 241.88 139.476v20.4l-241.88-138.876zm0-78 241.88 139.476v20.4l-241.88-138.876zm0-78 241.88 139.476v20.4l-241.88-138.876zm0-78 241.88 139.476v20.4l-241.88-138.876zm0-78 241.88 139.476v20.4l-241.88-138.876zm0-78 241.88 139.476v20.4l-241.88-138.876zm0-78 241.88 139.476v20.4l-241.88-138.876zm0-78 241.88 139.476v20.4l-241.88-138.876z" fill="url(#c)"/><path d="m1.4 2062.6 14.4-8.4 227.4 133.8v14.4zm14.4-86.4 227.4 133.8v14.4l-241.8-139.8zm0-78 227.4 133.8v14.4l-241.8-139.8zm0-78 227.4 133.8v14.4l-241.8-139.8zm0-78 227.4 133.8v14.4l-241.8-139.8zm0-78 227.4 133.8v14.4l-241.8-139.8zm0-78 227.4 133.8v14.4l-241.8-139.8zm0-78 227.4 133.8v14.4l-241.8-139.8zm0-78 227.4 133.8v14.4l-241.8-139.8zm0-78 227.4 133.8v14.4l-241.8-139.8zm0-78 227.4 133.8v14.4l-241.8-139.8zm0-78 227.4 133.8v14.4l-241.8-139.8zm0-79.8 227.4 133.8v14.4l-241.8-139.8zm0-78 227.4 133.8v14.4l-241.8-139.8zm0-78 227.4 133.8v14.4l-241.8-139.8zm0-78 227.4 133.8v14.4l-241.8-139.8zm0-78 227.4 133.8v14.4l-241.8-139.8zm0-78 227.4 133.8v14.4l-241.8-139.8zm0-78 227.4 133.8v14.4l-241.8-139.8zm0-78 227.4 133.8v14.4l-241.8-139.8zm0-78 227.4 133.8v14.4l-241.8-139.8zm0-78 227.4 133.8v14.4l-241.8-139.8zm0-78 227.4 133.8v14.4l-241.8-139.8zm-14.4-108 241.8 139.8v38.4l-241.8-139.8z" fill="url(#d)"/><path d="m14.52 2059.924v-51.6l228.68 132.876v50.4zm1 1520v-1491.6l228.68 132.876v1490.4zm-1-1649.6 228.68 132.876v50.4l-228.68-131.676zm0-78 228.68 132.876v50.4l-228.68-131.676zm0-78 228.68 132.876v50.4l-228.68-131.676zm0-78 228.68 132.876v50.4l-228.68-131.676zm0-78 228.68 132.876v50.4l-228.68-131.676zm0-78 228.68 132.876v50.4l-228.68-131.676zm0-78 228.68 132.876v50.4l-228.68-131.676zm0-78 228.68 132.876v50.4l-228.68-131.676zm0-78 228.68 132.876v50.4l-228.68-131.676zm0-78 228.68 132.876v50.4l-228.68-131.676zm0-78 228.68 132.876v50.4l-228.68-131.676zm0-79.8 228.68 132.876v50.4l-228.68-131.676zm0-78 228.68 132.876v50.4l-228.68-131.676zm0-78 228.68 132.876v50.4l-228.68-131.676zm0-78 228.68 132.876v50.4l-228.68-131.676zm0-78 228.68 132.876v50.4l-228.68-131.676zm0-78 228.68 132.876v50.4l-228.68-131.676zm0-78 228.68 132.876v50.4l-228.68-131.676zm0-78 228.68 132.876v50.4l-228.68-131.676zm0-78 228.68 132.876v50.4l-228.68-131.676zm0-78 228.68 132.876v50.4l-228.68-131.676zm0-78 228.68 132.876v50.4l-228.68-131.676z" fill="url(#e)"/><path d="m.795 229.817 399.324-229.421 239.087 137.733-395.136 233.68z" fill="#6689db"/><path d="m243.2 2191.6v-50.4l381.68-223.476v51.6zm1 1526v-1510.4l381.68-223.476v1511.6zm-1-1654.4 381.68-223.476v51.6l-381.68 222.276zm0-78 381.68-223.476v51.6l-381.68 222.276zm0-78 381.68-223.476v51.6l-381.68 222.276zm0-78 381.68-223.476v51.6l-381.68 222.276zm0-78 381.68-223.476v51.6l-381.68 222.276zm0-78 381.68-223.476v51.6l-381.68 222.276zm0-78 381.68-223.476v51.6l-381.68 222.276zm0-78 381.68-223.476v51.6l-381.68 222.276zm0-78 381.68-223.476v51.6l-381.68 222.276zm0-78 381.68-223.476v51.6l-381.68 222.276zm0-78 381.68-223.476v51.6l-381.68 222.276zm0-79.8 381.68-223.476v51.6l-381.68 222.276zm0-78 381.68-223.476v51.6l-381.68 222.276zm0-78 381.68-223.476v51.6l-381.68 222.276zm0-78 381.68-223.476v51.6l-381.68 222.276zm0-78 381.68-223.476v51.6l-381.68 222.276zm0-78 381.68-223.476v51.6l-381.68 222.276zm0-78 381.68-223.476v51.6l-381.68 222.276zm0-78 381.68-223.476v51.6l-381.68 222.276zm0-78 381.68-223.476v51.6l-381.68 222.276zm0-78 381.68-223.476v51.6l-381.68 222.276zm0-78 381.68-223.476v51.6l-381.68 222.276z" fill="url(#f)"/><path d="m13.846 231.055 386.708-221.889v9.41l-378.608 216.49z" fill="#0e1b84"/><path d="m400.546 9.168 225.008 128.67-8.1 4.525-216.908-123.87z" fill="#92a8e2"/><path d="m254.061 176.104 75.878 43.793v11.499l-75.878-43.792z" fill="#0c1272"/><path d="m329.593 219.45 22.814-12.6v11.7l-22.814 12.6z" fill="#86a5dc"/><path d="m275.539 164.059 75.864 43.8-22.445 12.958-75.863-43.799z" fill="#6488dc"/><path d="m213.06 196.104 75.88 43.792v11.5l-75.88-43.792z" fill="#0c1272"/><path d="m288.593 239.45 22.814-12.6v11.7l-22.814 12.6z" fill="#86a5dc"/><path d="m234.539 184.059 75.863 43.8-22.444 12.959-75.863-43.801z" fill="#6488dc"/><path d="m344.06 126.104 75.88 43.792v11.501l-75.88-43.794z" fill="#0c1272"/><path d="m419.593 169.45 22.814-12.6v11.7l-22.814 12.6z" fill="#86a5dc"/><path d="m365.539 114.059 75.863 43.8-22.444 12.959-75.863-43.801z" fill="#6488dc"/><path d="m303.06 146.104 75.88 43.792v11.501l-75.88-43.794z" fill="#0c1272"/><path d="m378.593 189.45 22.814-12.6v11.7l-22.814 12.6z" fill="#86a5dc"/><path d="m324.538 134.059 75.864 43.8-22.444 12.959-75.863-43.801z" fill="#6488dc"/></g></svg>