<svg preserveAspectRatio="xMidYMid meet" viewBox="0 0 749 5337" xmlns="http://www.w3.org/2000/svg" xmlns:xlink="http://www.w3.org/1999/xlink"><linearGradient id="a" x1="0%" x2="0%" y1="100%" y2="0%"><stop offset="0" stop-color="#fff"/><stop offset=".662478885" stop-color="#ea4fca"/><stop offset=".783572635" stop-color="#ea4fca"/><stop offset=".89313239" stop-color="#2d26b0"/><stop offset="1" stop-color="#1a0054"/></linearGradient><linearGradient id="b" x1="0%" x2="0%" y1="59.500897%" y2="0%"><stop offset="0" stop-color="#18062c"/><stop offset=".562763936" stop-color="#3e23ad"/><stop offset=".757601351" stop-color="#8e3eda"/><stop offset="1" stop-color="#cea9e9"/></linearGradient><linearGradient id="c" x1="0%" x2="0%" y1="45.881198%" y2="0%"><stop offset="0" stop-color="#e149c3"/><stop offset=".388407939" stop-color="#c13dc1"/><stop offset=".531777872" stop-color="#3805bb" stop-opacity=".49"/><stop offset="1" stop-color="#10045a"/><stop offset="1" stop-color="#130051"/></linearGradient><linearGradient id="d" x1="49.708581%" x2="49.68256%" y1="68.169071%" y2="0%"><stop offset=".00031672297" stop-color="#18062c"/><stop offset=".27808277" stop-color="#2e1777"/><stop offset=".735008446" stop-color="#853bd5"/><stop offset="1" stop-color="#ab72d1"/></linearGradient><linearGradient id="e" x1="0%" x2="100%" y1="0%" y2="0%"><stop offset="0" stop-color="#ffc3a7"/><stop offset="1" stop-color="#ffc3a7" stop-opacity="0"/></linearGradient><g fill="none"><path d="m.25 216h748.5v2859.188h-748.5z" fill="#030b22"/><path d="m.25 216h748.5v5121h-748.5z" fill="url(#a)"/><path d="m374.5 216h374.25v2859.188h-374.25z" fill="#a663fb"/><path d="m374.5 216h374.25v5121h-374.25z" fill="url(#b)"/><path d="m374.274.175 374.49 215.975-373.999 215.699-374.49-215.975z" fill="#829edf"/><path d="m251.67 2971.314 37.16 21.447v93.3l-37.16-21.447zm0-135 37.16 21.447v93.3l-37.16-21.447zm0-135 37.16 21.447v93.3l-37.16-21.447zm0-135 37.16 21.447v93.3l-37.16-21.447zm0-135 37.16 21.447v93.3l-37.16-21.447zm0-145.5 37.16 21.447v93.3l-37.16-21.447zm0-135 37.16 21.447v93.3l-37.16-21.447zm0-135 37.16 21.447v93.3l-37.16-21.447zm0-135 37.16 21.447v93.3l-37.16-21.447zm0-135 37.16 21.447v93.3l-37.16-21.447zm0-135 37.16 21.447v93.3l-37.16-21.447zm0-135 37.16 21.447v93.3l-37.16-21.447zm0-135 37.16 21.447v93.3l-37.16-21.447zm0-135 37.16 21.447v93.3l-37.16-21.447zm0-135 37.16 21.447v93.3l-37.16-21.447zm0-135 37.16 21.447v93.3l-37.16-21.447zm0-135 37.16 21.447v93.3l-37.16-21.447zm0-135 37.16 21.447v93.3l-37.16-21.447zm0-135 37.16 21.447v93.3l-37.16-21.447zm-91.5 2389.5 37.16 21.447v93.3l-37.16-21.447zm0-135 37.16 21.447v93.3l-37.16-21.447zm0-135 37.16 21.447v93.3l-37.16-21.447zm0-135 37.16 21.447v93.3l-37.16-21.447zm0-135 37.16 21.447v93.3l-37.16-21.447zm0-145.5 37.16 21.447v93.3l-37.16-21.447zm0-135 37.16 21.447v93.3l-37.16-21.447zm0-135 37.16 21.447v93.3l-37.16-21.447zm0-135 37.16 21.447v93.3l-37.16-21.447zm0-135 37.16 21.447v93.3l-37.16-21.447zm0-135 37.16 21.447v93.3l-37.16-21.447zm0-135 37.16 21.447v93.3l-37.16-21.447zm0-135 37.16 21.447v93.3l-37.16-21.447zm0-135 37.16 21.447v93.3l-37.16-21.447zm0-135 37.16 21.447v93.3l-37.16-21.447zm0-135 37.16 21.447v93.3l-37.16-21.447zm0-135 37.16 21.447v93.3l-37.16-21.447zm0-135 37.16 21.447v93.3l-37.16-21.447zm0-135 37.16 21.447v93.3l-37.16-21.447zm-90 2386.5 37.16 21.447v93.3l-37.16-21.447zm0-135 37.16 21.447v93.3l-37.16-21.447zm0-135 37.16 21.447v93.3l-37.16-21.447zm0-135 37.16 21.447v93.3l-37.16-21.447zm0-135 37.16 21.447v93.3l-37.16-21.447zm0-145.5 37.16 21.447v93.3l-37.16-21.447zm0-135 37.16 21.447v93.3l-37.16-21.447zm0-135 37.16 21.447v93.3l-37.16-21.447zm0-135 37.16 21.447v93.3l-37.16-21.447zm0-135 37.16 21.447v93.3l-37.16-21.447zm0-135 37.16 21.447v93.3l-37.16-21.447zm0-135 37.16 21.447v93.3l-37.16-21.447zm0-135 37.16 21.447v93.3l-37.16-21.447zm0-135 37.16 21.447v93.3l-37.16-21.447zm0-135 37.16 21.447v93.3l-37.16-21.447zm0-135 37.16 21.447v93.3l-37.16-21.447zm0-135 37.16 21.447v93.3l-37.16-21.447zm0-135 37.16 21.447v93.3l-37.16-21.447zm0-135 37.16 21.447v93.3l-37.16-21.447z" fill="url(#c)"/><path d="m251.67 1029.114v-93.3l37.16 21.447v93.3zm0-228.3 37.16 21.447v93.3l-37.16-21.447zm-91.5 84 37.16 21.447v93.3l-37.16-21.447z" fill="#fffdff"/><path d="m640.17 3004.761 37.16-21.447v93.3l-37.16 21.447zm0-135 37.16-21.447v93.3l-37.16 21.447zm0-135 37.16-21.447v93.3l-37.16 21.447zm0-135 37.16-21.447v93.3l-37.16 21.447zm0-135 37.16-21.447v93.3l-37.16 21.447zm0-135 37.16-21.447v93.3l-37.16 21.447zm0-145.5 37.16-21.447v93.3l-37.16 21.447zm0-135 37.16-21.447v93.3l-37.16 21.447zm0-135 37.16-21.447v93.3l-37.16 21.447zm0-135 37.16-21.447v93.3l-37.16 21.447zm0-135 37.16-21.447v93.3l-37.16 21.447zm0-135 37.16-21.447v93.3l-37.16 21.447zm0-135 37.16-21.447v93.3l-37.16 21.447zm0-135 37.16-21.447v93.3l-37.16 21.447zm0-135 37.16-21.447v93.3l-37.16 21.447zm0-135 37.16-21.447v93.3l-37.16 21.447zm0-135 37.16-21.447v93.3l-37.16 21.447zm0-135 37.16-21.447v93.3l-37.16 21.447zm0-135 37.16-21.447v93.3l-37.16 21.447zm0-135 37.16-21.447v93.3l-37.16 21.447zm-90 2629.5 37.16-21.447v93.3l-37.16 21.447zm0-135 37.16-21.447v93.3l-37.16 21.447zm0-135 37.16-21.447v93.3l-37.16 21.447zm0-135 37.16-21.447v93.3l-37.16 21.447zm0-135 37.16-21.447v93.3l-37.16 21.447zm0-135 37.16-21.447v93.3l-37.16 21.447zm0-145.5 37.16-21.447v93.3l-37.16 21.447zm0-135 37.16-21.447v93.3l-37.16 21.447zm0-135 37.16-21.447v93.3l-37.16 21.447zm0-135 37.16-21.447v93.3l-37.16 21.447zm0-135 37.16-21.447v93.3l-37.16 21.447zm0-135 37.16-21.447v93.3l-37.16 21.447zm0-135 37.16-21.447v93.3l-37.16 21.447zm0-135 37.16-21.447v93.3l-37.16 21.447zm0-135 37.16-21.447v93.3l-37.16 21.447zm0-135 37.16-21.447v93.3l-37.16 21.447zm0-135 37.16-21.447v93.3l-37.16 21.447zm0-135 37.16-21.447v93.3l-37.16 21.447zm0-135 37.16-21.447v93.3l-37.16 21.447zm0-135 37.16-21.447v93.3l-37.16 21.447zm-91.5 2491.5 37.16-21.447v93.3l-37.16 21.447zm0-135 37.16-21.447v93.3l-37.16 21.447zm0-135 37.16-21.447v93.3l-37.16 21.447zm0-135 37.16-21.447v93.3l-37.16 21.447zm0-135 37.16-21.447v93.3l-37.16 21.447zm0-145.5 37.16-21.447v93.3l-37.16 21.447zm0-135 37.16-21.447v93.3l-37.16 21.447zm0-135 37.16-21.447v93.3l-37.16 21.447zm0-135 37.16-21.447v93.3l-37.16 21.447zm0-135 37.16-21.447v93.3l-37.16 21.447zm0-135 37.16-21.447v93.3l-37.16 21.447zm0-135 37.16-21.447v93.3l-37.16 21.447zm0-135 37.16-21.447v93.3l-37.16 21.447zm0-135 37.16-21.447v93.3l-37.16 21.447zm0-135 37.16-21.447v93.3l-37.16 21.447zm0-135 37.16-21.447v93.3l-37.16 21.447zm0-135 37.16-21.447v93.3l-37.16 21.447zm0-135 37.16-21.447v93.3l-37.16 21.447zm0-135 37.16-21.447v93.3l-37.16 21.447z" fill="url(#d)"/><path d="m587.33 731.814-37.16 21.447v93.3l37.16-21.447z" fill="#f6c5bf"/><path d="m549.25 753.187v93.001l82.5 43.499v-133.499l-44.42-24.374z" fill="url(#e)"/><path d="m28.364 215.325 345.772-193.223v23.526l-325.522 179.723z" fill="#261d9e"/><path d="m374.114 22.109 334.522 192.674-20.25 11.312-314.272-180.675z" fill="#96b0e3"/></g></svg>