<?xml version="1.0" encoding="UTF-8"?>
<svg width="16px" height="16px" viewBox="0 0 16 16" version="1.1" xmlns="http://www.w3.org/2000/svg" xmlns:xlink="http://www.w3.org/1999/xlink">
    <!-- Generator: Sketch 53.2 (72643) - https://sketchapp.com -->
    <title>social-ico-codepen</title>
    <desc>Created with Sketch.</desc>
    <g id="Page-1" stroke="none" stroke-width="1" fill="none" fill-rule="evenodd">
        <g id="social-ico-codepen" fill="#FFFFFF" fill-rule="nonzero">
            <path d="M1.92857143,10.4375 L7.3125,14.0267857 L7.3125,10.8214286 L4.33035714,8.83035714 L1.92857143,10.4375 Z M1.375,9.15178571 L3.09821429,8 L1.375,6.84821429 L1.375,9.15178571 Z M8.6875,14.0267857 L14.0714286,10.4375 L11.6696429,8.83035714 L8.6875,10.8214286 L8.6875,14.0267857 Z M8,9.625 L10.4285714,8 L8,6.375 L5.57142857,8 L8,9.625 Z M4.33035714,7.16964286 L7.3125,5.17857143 L7.3125,1.97321429 L1.92857143,5.5625 L4.33035714,7.16964286 Z M12.9017857,8 L14.625,9.15178571 L14.625,6.84821429 L12.9017857,8 Z M11.6696429,7.16964286 L14.0714286,5.5625 L8.6875,1.97321429 L8.6875,5.17857143 L11.6696429,7.16964286 Z M16,5.5625 L16,10.4375 C16,10.6815476 15.8988095,10.8720238 15.6964286,11.0089286 L8.38392857,15.8839286 C8.25892857,15.9613095 8.13095238,16 8,16 C7.86904762,16 7.74107143,15.9613095 7.61607143,15.8839286 L0.303571429,11.0089286 C0.101190476,10.8720238 0,10.6815476 0,10.4375 L0,5.5625 C0,5.31845238 0.101190476,5.12797619 0.303571429,4.99107143 L7.61607143,0.116071429 C7.74107143,0.0386904762 7.86904762,0 8,0 C8.13095238,0 8.25892857,0.0386904762 8.38392857,0.116071429 L15.6964286,4.99107143 C15.8988095,5.12797619 16,5.31845238 16,5.5625 Z" id="Shape"></path>
        </g>
    </g>
</svg>